<?xml version="1.0" encoding="UTF-8"?>
<svg id="_レイヤー_2" data-name="レイヤー 2" xmlns="http://www.w3.org/2000/svg" viewBox="0 0 58.94 33.86">
  <g id="_レイヤー_1-2" data-name="レイヤー 1">
    <g>
      <path d="m11.59,25.9c.35-.02.64-.16.88-.43.23-.27.34-.58.32-.93-.02-.34-.16-.62-.43-.86-.27-.24-.57-.34-.91-.32-.34.02-.63.16-.87.42-.24.26-.36.56-.34.89.02.34.17.64.43.89s.57.36.91.34Z"/>
      <path d="m58.37,26.96c-.38-.44-.89-.73-1.52-.88-.26-.06-.51-.1-.73-.1-.34,0-.64.06-.9.19-.19-.41-.54-.61-1.06-.61-.27,0-.51.09-.72.27s-.35.42-.42.73l-.6,2.61c-.09-.9-.43-1.67-1.06-2.3-.69-.71-1.52-1.04-2.51-1-.98.06-1.77.47-2.39,1.25-.34.43-.56.9-.69,1.4-.17-.62-.47-1.18-.94-1.65-.69-.71-1.52-1.04-2.51-1-.98.06-1.77.47-2.39,1.25-.5.63-.76,1.34-.8,2.13l-.42-1.83c-.15-.66-.44-1.17-.88-1.52-.43-.35-.95-.53-1.55-.53-.25,0-.5.03-.76.08-.64.15-1.18.53-1.61,1.13-.41-.26-.85-.38-1.32-.38-.8,0-1.44.3-1.93.9-.18-.17-.41-.25-.68-.25-.1,0-.2.01-.3.04-.28.06-.5.2-.65.41-.12.16-.17.34-.2.54-.17-.35-.39-.67-.68-.96-.69-.71-1.52-1.04-2.51-1-.98.06-1.77.47-2.39,1.25-.15.18-.27.37-.38.57.06-.11.1-.23.11-.37.02-.38-.07-.69-.29-.94-.2-.22-.45-.34-.76-.36-.49-.03-.86.09-1.12.37-.17-.31-.49-.48-.96-.52-.3-.02-.58.05-.82.23-.27.2-.42.48-.46.85l-.26,3.83s0-.01-.01-.02c-.22-.2-.46-.29-.74-.27-.14,0-.35.08-.63.21-.28.13-.49.2-.64.21-.34.02-.62-.1-.85-.37-.23-.27-.35-.6-.38-1-.02-.42.06-.78.25-1.07.19-.29.47-.44.83-.46.16,0,.39.04.69.13.3.1.53.14.69.13.3-.02.53-.16.71-.44.14-.23.21-.48.19-.73-.02-.44-.34-.78-.96-1.02-.5-.19-1-.28-1.52-.25-.98.06-1.77.47-2.39,1.25-.34.43-.56.9-.69,1.41l-.07-1.36c-.02-.36-.14-.65-.37-.88-.23-.23-.51-.33-.86-.32-.34.02-.62.16-.82.41-.2.25-.29.55-.27.91l.19,3.61c0-.07-.01-.15-.03-.22l-.74-3.23c-.15-.66-.44-1.17-.88-1.52-.43-.35-.95-.53-1.55-.53-.25,0-.5.03-.76.08-.64.15-1.18.53-1.61,1.13-.41-.26-.85-.38-1.32-.38-.8,0-1.44.3-1.93.9-.18-.17-.41-.25-.68-.25-.1,0-.2.01-.3.04-.28.06-.5.2-.65.41-.16.21-.23.46-.23.74,0,.11.01.22.04.34l1.03,4.49c.07.3.21.55.42.73s.45.27.72.27c.1,0,.19,0,.29-.02.27-.06.49-.2.65-.41.16-.21.24-.46.24-.74,0-.11-.02-.22-.05-.34l-.67-2.94c-.03-.13-.05-.24-.05-.35,0-.46.24-.7.72-.7.37,0,.61.24.72.72l.67,2.94c.07.3.21.54.42.72.21.18.45.28.72.28.1,0,.19-.01.28-.04.28-.06.5-.2.66-.41s.24-.45.24-.73c0-.11-.02-.23-.05-.35l-.67-2.93c-.02-.11-.04-.22-.04-.31,0-.22.06-.39.19-.53.13-.14.3-.21.52-.21.37,0,.61.24.72.73l.67,2.93c.07.3.21.55.42.73.21.18.45.28.72.28.1,0,.19-.01.28-.04.28-.06.5-.2.66-.41.15-.19.22-.43.23-.69l.04.84c.02.36.14.65.37.88.23.23.51.33.86.31.34-.02.62-.15.82-.4s.3-.55.28-.91l-.05-.89c.18.48.44.92.82,1.3.68.69,1.52,1,2.52.95.49-.02.97-.17,1.45-.43.25-.13.43-.28.57-.43.04.12.09.23.17.33.2.25.47.39.8.41.34.02.63-.08.86-.3.23-.22.36-.52.4-.88l.18-2.64c.02-.3.22-.54.59-.7.34-.12.69-.24,1.03-.36.22-.1.37-.24.46-.41-.32.6-.46,1.26-.43,1.99.06.99.41,1.82,1.07,2.48.68.69,1.52,1.01,2.52.96,1-.06,1.8-.46,2.41-1.22.44-.56.7-1.2.77-1.92l.66,2.86c.07.3.21.55.42.73.21.18.45.27.72.27.1,0,.19,0,.29-.02.27-.06.49-.2.65-.41s.24-.46.24-.74c0-.11-.02-.22-.05-.34l-.67-2.94c-.03-.13-.05-.24-.05-.35,0-.46.24-.7.72-.7.37,0,.61.24.72.72l.67,2.94c.07.3.21.54.42.72s.45.28.72.28c.1,0,.19-.01.28-.04.28-.06.5-.2.66-.41s.24-.45.24-.73c0-.11-.02-.23-.05-.35l-.67-2.93c-.02-.11-.04-.22-.04-.31,0-.22.06-.39.19-.53.13-.14.3-.21.52-.21.37,0,.61.24.72.73l.67,2.93c.07.3.21.55.42.73.21.18.45.28.72.28.1,0,.19-.01.28-.04.28-.06.5-.2.66-.41.13-.16.19-.36.21-.57.17.38.41.72.71,1.03.68.69,1.52,1.01,2.52.96,1-.06,1.8-.46,2.41-1.22.33-.41.54-.87.67-1.37.17.62.47,1.17.93,1.64.68.69,1.52,1.01,2.52.96,1-.06,1.8-.46,2.41-1.22.12-.15.22-.31.31-.47.01.25.08.48.23.67.16.21.37.34.65.41.09.02.18.04.28.04.27,0,.51-.09.72-.28.21-.18.35-.42.42-.72l.67-2.94c.11-.47.37-.71.77-.71.24,0,.44.07.61.21.17.14.25.33.25.57,0,.1-.01.2-.04.3l-.68,2.93c-.02.12-.04.24-.04.35,0,.28.08.52.24.73.16.21.38.34.65.41.1.02.19.04.28.04.28,0,.52-.09.73-.27.21-.18.34-.42.41-.73l.76-3.23c.05-.24.07-.47.07-.7,0-.62-.19-1.14-.57-1.58Zm-31.69,3.55c-.18.29-.43.44-.76.46-.32.02-.58-.11-.79-.38-.21-.27-.32-.6-.35-1-.02-.42.05-.77.23-1.06.18-.29.43-.45.76-.46.33-.02.59.11.8.38.2.27.32.61.34,1.02s-.05.76-.23,1.04Zm16.68,0c-.18.29-.43.44-.76.46-.32.02-.58-.11-.79-.38-.21-.27-.32-.6-.35-1-.02-.42.05-.77.23-1.06.18-.29.43-.45.76-.46.33-.02.59.11.8.38.2.27.32.61.34,1.02s-.05.76-.23,1.04Zm6.53,0c-.18.29-.43.44-.76.46-.32.02-.58-.11-.79-.38-.21-.27-.32-.6-.35-1-.02-.42.05-.77.23-1.06.18-.29.43-.45.76-.46.33-.02.59.11.8.38.2.27.32.61.34,1.02s-.05.76-.23,1.04Z"/>
      <path d="m11.62,22.11h.16c.64,0,1.25.23,1.75.67.56.49.87,1.13.9,1.85,0,.14,0,.28-.02.41.54-.26,1.14-.42,1.78-.45.08,0,.18,0,.27,0,.6,0,1.22.12,1.83.35.12.05.24.1.35.15.47-.32.97-.47,1.51-.47h.18c-1.03-1.66-1.63-3.61-1.63-5.71,0-6.02,4.9-10.91,10.92-10.91s10.91,4.9,10.91,10.91c0,2.24-.68,4.33-1.84,6.06.28.22.52.49.72.8.78-.7,1.73-1.09,2.83-1.16.1,0,.19,0,.27,0,1.24,0,2.38.47,3.28,1.37.51-.52,1.11-.87,1.76-1.1.63-1.88.98-3.88.98-5.97C48.52,8.48,40.04,0,29.61,0S10.69,8.48,10.69,18.91c0,1.13.12,2.23.31,3.31.2-.06.41-.1.62-.11Z"/>
      <path d="m22.32,14.15c-.17.45-.1.52-.08.53.47.33,5.24-4.25,4.86-4.68-.29-.34-3.85,1.64-4.78,4.15Z"/>
    </g>
  </g>
</svg>